<?xml version="1.0" encoding="us-ascii" standalone="no"?><svg xmlns="http://www.w3.org/2000/svg" xmlns:xlink="http://www.w3.org/1999/xlink" contentStyleType="text/css" height="702px" preserveAspectRatio="none" style="width:1194px;height:702px;background:#FFFFFF;" version="1.1" viewBox="0 0 1194 702" width="1194px" zoomAndPan="magnify"><defs/><g><rect fill="#FFFFFF" height="517.4609" style="stroke:#181818;stroke-width:1.0;" width="10" x="32.5" y="92.6094"/><rect fill="#FFFFFF" height="435.7578" style="stroke:#181818;stroke-width:1.0;" width="10" x="244.5" y="159.3125"/><rect fill="#FFFFFF" height="375.0547" style="stroke:#181818;stroke-width:1.0;" width="10" x="429.5" y="189.6641"/><rect fill="#FFFFFF" height="151.7578" style="stroke:#181818;stroke-width:1.0;" width="10" x="626.5" y="306.0703"/><rect fill="#FFFFFF" height="30.3516" style="stroke:#181818;stroke-width:1.0;" width="10" x="802.5" y="220.0156"/><rect fill="#FFFFFF" height="30.3516" style="stroke:#181818;stroke-width:1.0;" width="10" x="948" y="336.4219"/><rect fill="#FFFFFF" height="30.3516" style="stroke:#181818;stroke-width:1.0;" width="10" x="1080" y="397.125"/><rect fill="none" height="337.7031" style="stroke:#000000;stroke-width:1.5;" width="1167" x="10" y="265.3672"/><line style="stroke:#181818;stroke-width:0.5;stroke-dasharray:5.0,5.0;" x1="37" x2="37" y1="82.6094" y2="620.0703"/><line style="stroke:#181818;stroke-width:0.5;stroke-dasharray:5.0,5.0;" x1="249" x2="249" y1="82.6094" y2="620.0703"/><line style="stroke:#181818;stroke-width:0.5;stroke-dasharray:5.0,5.0;" x1="434.5" x2="434.5" y1="82.6094" y2="620.0703"/><line style="stroke:#181818;stroke-width:0.5;stroke-dasharray:5.0,5.0;" x1="631" x2="631" y1="82.6094" y2="620.0703"/><line style="stroke:#181818;stroke-width:0.5;stroke-dasharray:5.0,5.0;" x1="807" x2="807" y1="82.6094" y2="620.0703"/><line style="stroke:#181818;stroke-width:0.5;stroke-dasharray:5.0,5.0;" x1="953" x2="953" y1="82.6094" y2="620.0703"/><line style="stroke:#181818;stroke-width:0.5;stroke-dasharray:5.0,5.0;" x1="1085" x2="1085" y1="82.6094" y2="620.0703"/><text fill="#000000" font-family="sans-serif" font-size="14" lengthAdjust="spacing" textLength="29" x="20" y="79.5332">User</text><ellipse cx="37.5" cy="13.5" fill="#E2E2F0" rx="8" ry="8" style="stroke:#181818;stroke-width:0.5;"/><path d="M37.5,21.5 L37.5,48.5 M24.5,29.5 L50.5,29.5 M37.5,48.5 L24.5,63.5 M37.5,48.5 L50.5,63.5 " fill="none" style="stroke:#181818;stroke-width:0.5;"/><text fill="#000000" font-family="sans-serif" font-size="14" lengthAdjust="spacing" textLength="29" x="20" y="633.6035">User</text><ellipse cx="37.5" cy="645.1797" fill="#E2E2F0" rx="8" ry="8" style="stroke:#181818;stroke-width:0.5;"/><path d="M37.5,653.1797 L37.5,680.1797 M24.5,661.1797 L50.5,661.1797 M37.5,680.1797 L24.5,695.1797 M37.5,680.1797 L50.5,695.1797 " fill="none" style="stroke:#181818;stroke-width:0.5;"/><rect fill="#E2E2F0" height="31.6094" rx="2.5" ry="2.5" style="stroke:#181818;stroke-width:0.5;" width="101" x="199" y="50"/><text fill="#000000" font-family="sans-serif" font-size="14" lengthAdjust="spacing" textLength="87" x="206" y="71.5332">API Controller</text><rect fill="#E2E2F0" height="31.6094" rx="2.5" ry="2.5" style="stroke:#181818;stroke-width:0.5;" width="101" x="199" y="619.0703"/><text fill="#000000" font-family="sans-serif" font-size="14" lengthAdjust="spacing" textLength="87" x="206" y="640.6035">API Controller</text><rect fill="#E2E2F0" height="31.6094" rx="2.5" ry="2.5" style="stroke:#181818;stroke-width:0.5;" width="156" x="356.5" y="50"/><text fill="#000000" font-family="sans-serif" font-size="14" lengthAdjust="spacing" textLength="142" x="363.5" y="71.5332">Registration Controller</text><rect fill="#E2E2F0" height="31.6094" rx="2.5" ry="2.5" style="stroke:#181818;stroke-width:0.5;" width="156" x="356.5" y="619.0703"/><text fill="#000000" font-family="sans-serif" font-size="14" lengthAdjust="spacing" textLength="142" x="363.5" y="640.6035">Registration Controller</text><rect fill="#E2E2F0" height="31.6094" rx="2.5" ry="2.5" style="stroke:#181818;stroke-width:0.5;" width="141" x="561" y="50"/><text fill="#000000" font-family="sans-serif" font-size="14" lengthAdjust="spacing" textLength="127" x="568" y="71.5332">Registration Service</text><rect fill="#E2E2F0" height="31.6094" rx="2.5" ry="2.5" style="stroke:#181818;stroke-width:0.5;" width="141" x="561" y="619.0703"/><text fill="#000000" font-family="sans-serif" font-size="14" lengthAdjust="spacing" textLength="127" x="568" y="640.6035">Registration Service</text><rect fill="#E2E2F0" height="31.6094" rx="2.5" ry="2.5" style="stroke:#181818;stroke-width:0.5;" width="191" x="712" y="50"/><text fill="#000000" font-family="sans-serif" font-size="14" lengthAdjust="spacing" textLength="177" x="719" y="71.5332">External Registration Server</text><rect fill="#E2E2F0" height="31.6094" rx="2.5" ry="2.5" style="stroke:#181818;stroke-width:0.5;" width="191" x="712" y="619.0703"/><text fill="#000000" font-family="sans-serif" font-size="14" lengthAdjust="spacing" textLength="177" x="719" y="640.6035">External Registration Server</text><rect fill="#E2E2F0" height="31.6094" rx="2.5" ry="2.5" style="stroke:#181818;stroke-width:0.5;" width="80" x="913" y="50"/><text fill="#000000" font-family="sans-serif" font-size="14" lengthAdjust="spacing" textLength="66" x="920" y="71.5332">Device DB</text><rect fill="#E2E2F0" height="31.6094" rx="2.5" ry="2.5" style="stroke:#181818;stroke-width:0.5;" width="80" x="913" y="619.0703"/><text fill="#000000" font-family="sans-serif" font-size="14" lengthAdjust="spacing" textLength="66" x="920" y="640.6035">Device DB</text><rect fill="#E2E2F0" height="31.6094" rx="2.5" ry="2.5" style="stroke:#181818;stroke-width:0.5;" width="164" x="1003" y="50"/><text fill="#000000" font-family="sans-serif" font-size="14" lengthAdjust="spacing" textLength="150" x="1010" y="71.5332">Kafka Publisher Service</text><rect fill="#E2E2F0" height="31.6094" rx="2.5" ry="2.5" style="stroke:#181818;stroke-width:0.5;" width="164" x="1003" y="619.0703"/><text fill="#000000" font-family="sans-serif" font-size="14" lengthAdjust="spacing" textLength="150" x="1010" y="640.6035">Kafka Publisher Service</text><rect fill="#FFFFFF" height="517.4609" style="stroke:#181818;stroke-width:1.0;" width="10" x="32.5" y="92.6094"/><rect fill="#FFFFFF" height="435.7578" style="stroke:#181818;stroke-width:1.0;" width="10" x="244.5" y="159.3125"/><rect fill="#FFFFFF" height="375.0547" style="stroke:#181818;stroke-width:1.0;" width="10" x="429.5" y="189.6641"/><rect fill="#FFFFFF" height="151.7578" style="stroke:#181818;stroke-width:1.0;" width="10" x="626.5" y="306.0703"/><rect fill="#FFFFFF" height="30.3516" style="stroke:#181818;stroke-width:1.0;" width="10" x="802.5" y="220.0156"/><rect fill="#FFFFFF" height="30.3516" style="stroke:#181818;stroke-width:1.0;" width="10" x="948" y="336.4219"/><rect fill="#FFFFFF" height="30.3516" style="stroke:#181818;stroke-width:1.0;" width="10" x="1080" y="397.125"/><rect fill="#EEEEEE" height="3" style="stroke:#EEEEEE;stroke-width:1.0;" width="1187" x="0" y="113.7852"/><line style="stroke:#000000;stroke-width:1.0;" x1="0" x2="1187" y1="113.7852" y2="113.7852"/><line style="stroke:#000000;stroke-width:1.0;" x1="0" x2="1187" y1="116.7852" y2="116.7852"/><rect fill="#EEEEEE" height="24.3516" style="stroke:#000000;stroke-width:2.0;" width="178" x="504.5" y="102.6094"/><text fill="#000000" font-family="sans-serif" font-size="13" font-weight="bold" lengthAdjust="spacing" textLength="160" x="510.5" y="120.1045">&#1056;&#1077;&#1075;&#1080;&#1089;&#1090;&#1088;&#1072;&#1094;&#1080;&#1103; &#1091;&#1089;&#1090;&#1088;&#1086;&#1081;&#1089;&#1090;&#1074;&#1072;</text><polygon fill="#181818" points="232.5,155.3125,242.5,159.3125,232.5,163.3125,236.5,159.3125" style="stroke:#181818;stroke-width:1.0;"/><line style="stroke:#181818;stroke-width:1.0;" x1="42.5" x2="238.5" y1="159.3125" y2="159.3125"/><text fill="#000000" font-family="sans-serif" font-size="13" lengthAdjust="spacing" textLength="183" x="49.5" y="154.4561">POST /devices/register/{Device}</text><polygon fill="#181818" points="417.5,185.6641,427.5,189.6641,417.5,193.6641,421.5,189.6641" style="stroke:#181818;stroke-width:1.0;"/><line style="stroke:#181818;stroke-width:1.0;" x1="254.5" x2="423.5" y1="189.6641" y2="189.6641"/><text fill="#000000" font-family="sans-serif" font-size="13" lengthAdjust="spacing" textLength="156" x="261.5" y="184.8076">routeToRegistration(device)</text><polygon fill="#181818" points="790.5,216.0156,800.5,220.0156,790.5,224.0156,794.5,220.0156" style="stroke:#181818;stroke-width:1.0;"/><line style="stroke:#181818;stroke-width:1.0;" x1="439.5" x2="796.5" y1="220.0156" y2="220.0156"/><text fill="#000000" font-family="sans-serif" font-size="13" lengthAdjust="spacing" textLength="152" x="446.5" y="215.1592">checkDevice(device.serial)</text><polygon fill="#181818" points="450.5,246.3672,440.5,250.3672,450.5,254.3672,446.5,250.3672" style="stroke:#181818;stroke-width:1.0;"/><line style="stroke:#181818;stroke-width:1.0;stroke-dasharray:2.0,2.0;" x1="444.5" x2="806.5" y1="250.3672" y2="250.3672"/><text fill="#000000" font-family="sans-serif" font-size="13" lengthAdjust="spacing" textLength="82" x="456.5" y="245.5107">boolean (valid)</text><path d="M10,265.3672 L71,265.3672 L71,273.7188 L61,283.7188 L10,283.7188 L10,265.3672 " fill="#EEEEEE" style="stroke:#000000;stroke-width:1.5;"/><rect fill="none" height="337.7031" style="stroke:#000000;stroke-width:1.5;" width="1167" x="10" y="265.3672"/><text fill="#000000" font-family="sans-serif" font-size="13" font-weight="bold" lengthAdjust="spacing" textLength="16" x="25" y="279.8623">alt</text><text fill="#000000" font-family="sans-serif" font-size="11" font-weight="bold" lengthAdjust="spacing" textLength="208" x="86" y="278.7861">[&#1056;&#1077;&#1075;&#1080;&#1089;&#1090;&#1088;&#1072;&#1094;&#1080;&#1103; &#1086;&#1073;&#1086;&#1088;&#1091;&#1076;&#1086;&#1074;&#1072;&#1085;&#1080;&#1103; &#1087;&#1088;&#1086;&#1096;&#1083;&#1072;]</text><polygon fill="#181818" points="614.5,302.0703,624.5,306.0703,614.5,310.0703,618.5,306.0703" style="stroke:#181818;stroke-width:1.0;"/><line style="stroke:#181818;stroke-width:1.0;" x1="439.5" x2="620.5" y1="306.0703" y2="306.0703"/><text fill="#000000" font-family="sans-serif" font-size="13" lengthAdjust="spacing" textLength="125" x="446.5" y="301.2139">registerDevice(device)</text><polygon fill="#181818" points="936,332.4219,946,336.4219,936,340.4219,940,336.4219" style="stroke:#181818;stroke-width:1.0;"/><line style="stroke:#181818;stroke-width:1.0;" x1="636.5" x2="942" y1="336.4219" y2="336.4219"/><text fill="#000000" font-family="sans-serif" font-size="13" lengthAdjust="spacing" textLength="108" x="643.5" y="331.5654">saveDevice(device)</text><polygon fill="#181818" points="647.5,362.7734,637.5,366.7734,647.5,370.7734,643.5,366.7734" style="stroke:#181818;stroke-width:1.0;"/><line style="stroke:#181818;stroke-width:1.0;stroke-dasharray:2.0,2.0;" x1="641.5" x2="952" y1="366.7734" y2="366.7734"/><text fill="#000000" font-family="sans-serif" font-size="13" lengthAdjust="spacing" textLength="14" x="653.5" y="361.917">ok</text><polygon fill="#181818" points="1068,393.125,1078,397.125,1068,401.125,1072,397.125" style="stroke:#181818;stroke-width:1.0;"/><line style="stroke:#181818;stroke-width:1.0;" x1="636.5" x2="1074" y1="397.125" y2="397.125"/><text fill="#000000" font-family="sans-serif" font-size="13" lengthAdjust="spacing" textLength="196" x="643.5" y="392.2686">publishRegistrationEvent(deviceId)</text><polygon fill="#181818" points="647.5,423.4766,637.5,427.4766,647.5,431.4766,643.5,427.4766" style="stroke:#181818;stroke-width:1.0;"/><line style="stroke:#181818;stroke-width:1.0;stroke-dasharray:2.0,2.0;" x1="641.5" x2="1084" y1="427.4766" y2="427.4766"/><text fill="#000000" font-family="sans-serif" font-size="13" lengthAdjust="spacing" textLength="21" x="653.5" y="422.6201">ack</text><polygon fill="#181818" points="450.5,453.8281,440.5,457.8281,450.5,461.8281,446.5,457.8281" style="stroke:#181818;stroke-width:1.0;"/><line style="stroke:#181818;stroke-width:1.0;stroke-dasharray:2.0,2.0;" x1="444.5" x2="630.5" y1="457.8281" y2="457.8281"/><text fill="#000000" font-family="sans-serif" font-size="13" lengthAdjust="spacing" textLength="163" x="456.5" y="452.9717">RegistrationResult(success)</text><polygon fill="#181818" points="265.5,484.1797,255.5,488.1797,265.5,492.1797,261.5,488.1797" style="stroke:#181818;stroke-width:1.0;"/><line style="stroke:#181818;stroke-width:1.0;stroke-dasharray:2.0,2.0;" x1="259.5" x2="428.5" y1="488.1797" y2="488.1797"/><text fill="#000000" font-family="sans-serif" font-size="13" lengthAdjust="spacing" textLength="80" x="271.5" y="483.3232">HTTP 200 OK</text><polygon fill="#181818" points="53.5,514.5313,43.5,518.5313,53.5,522.5313,49.5,518.5313" style="stroke:#181818;stroke-width:1.0;"/><line style="stroke:#181818;stroke-width:1.0;stroke-dasharray:2.0,2.0;" x1="47.5" x2="243.5" y1="518.5313" y2="518.5313"/><text fill="#000000" font-family="sans-serif" font-size="13" lengthAdjust="spacing" textLength="128" x="59.5" y="513.6748">OK (device registered)</text><line style="stroke:#000000;stroke-width:1.0;stroke-dasharray:2.0,2.0;" x1="10" x2="1177" y1="527.5313" y2="527.5313"/><text fill="#000000" font-family="sans-serif" font-size="11" font-weight="bold" lengthAdjust="spacing" textLength="225" x="15" y="538.9502">[&#1056;&#1077;&#1075;&#1080;&#1089;&#1090;&#1088;&#1072;&#1094;&#1080;&#1103; &#1086;&#1073;&#1086;&#1088;&#1091;&#1076;&#1086;&#1074;&#1072;&#1085;&#1080;&#1103; &#1085;&#1077; &#1087;&#1088;&#1086;&#1096;&#1083;&#1072;]</text><polygon fill="#181818" points="265.5,560.7188,255.5,564.7188,265.5,568.7188,261.5,564.7188" style="stroke:#181818;stroke-width:1.0;"/><line style="stroke:#181818;stroke-width:1.0;stroke-dasharray:2.0,2.0;" x1="259.5" x2="433.5" y1="564.7188" y2="564.7188"/><text fill="#000000" font-family="sans-serif" font-size="13" lengthAdjust="spacing" textLength="136" x="271.5" y="559.8623">HTTP 400 Bad Request</text><polygon fill="#181818" points="53.5,591.0703,43.5,595.0703,53.5,599.0703,49.5,595.0703" style="stroke:#181818;stroke-width:1.0;"/><line style="stroke:#181818;stroke-width:1.0;stroke-dasharray:2.0,2.0;" x1="47.5" x2="248.5" y1="595.0703" y2="595.0703"/><text fill="#000000" font-family="sans-serif" font-size="13" lengthAdjust="spacing" textLength="115" x="59.5" y="590.2139">Error (invalid device)</text><!--SRC=[bLJTQjim6BtNKtpqAYPaAMDNWGpw4rZfHKEJFO1iVsj5X9rAiYcKGRV2sDrUOO-GhIjiZ7Ql8B_HFadsPhLhORammjyvn-USJuHdfbJmMgDYQwwCoCIQ5mQsTkO7i5SMHfLIeje2he6lHOmvnXEXZU96bCLziCAJFQFa4uG5gbfasA4NTHQ3P-S6LS4bF62rdy0M4DFsqQd2_gx7v6ayFUHlLXpcLIg5FaKLcLYv6MFJATZFziPUs-_Dk-PzSsatpGSwVuBcgdrnPt-ua_rgDp2TiftCY9eR33KozuJHIzVNS0WJc1yjbZ3ElIyzLZuDgl55SFgM4Sx1syOyHPMLmMNPJpu80WbhSOxIDU0vsIbcgw3POf-H4S5bmZeSZFv-PpIQG5gM4da1WvfBaIUCI_DOTihynTurbysL_KPdIcvlm-2NAwJvQ7_Q3GFwzVo5jGw74-XIH_wI3ayW1yzJ7qJp6l-1ozFEFi6T-t9rZ-yNw2NMOS7z_cOr5gOLFCY3f2T4giJbMQpRhup6VSrZr9Kq0rrbj5cTnF733I36g-Lo3i-tj-7eq2Fylcdgxyc4ta9hwqzBIFvGQlp_PTpQcoSs4Yovxhod5-Hfb-SKwQn2RHwOytbdIj4Vn40K_ev0jn4iSiPovD7L_mq0]--></g></svg>